# xmcd
#
# Track frame offsets:
#	150
#	9250
#	21725
#	34362
#	47725
#	60700
#	72537
#	90462
#	102525
#	113125
#	126812
#	139187
#	152750
#	164750
#
# Disc length: 2359 seconds
# Revision: 0
# Processed by: cddbd v1.5.2PL0 Copyright (c) Steve Scherf et al.
# Submitted via: dBpowerAMP V12.0
#
DISCID=ca09350e
DTITLE=Various Artist - Country Bluegrass Legends
DYEAR=2003
DGENRE=Country*
TTITLE0=Jim and Jesse - Sweet Little Miss Blue Eyes
TTITLE1=Bill Monroe and His Blue Grass Boys - Molly And Tenbrooks
TTITLE2=Flatt and Scruggs - My Saro Jane
TTITLE3=The Stanley Brothers with The Clinch Mountain Boys - I'm A Man Of Constant Sorrow
TTITLE4=Roy Acuff - Black Mountain Rag
TTITLE5=The Osborne Brothers - Rocky Top
TTITLE6=Ricky Skaggs - Don't Let Your Sweet Love Die
TTITLE7=Jim and Jesse - The South Bound Train
TTITLE8=Flatt and Scruggs - Foggy Mountain Breakdown
TTITLE9=Bill Monroe and His Blue Grass Boys - Blue Moon Of Kentucky
TTITLE10=The Stanley Brothers with The Clinch Mountain Boys - Let Me Be Your Friend
TTITLE11=Jimmy Martin with The Sunny Mountain Boys - Widow Maker
TTITLE12=Arthur Smith and Son - Feudin' Banjos
TTITLE13=The Carter Family - Keep On The Sunny Side
EXTD=
EXTT0=
EXTT1=
EXTT2=
EXTT3=
EXTT4=
EXTT5=
EXTT6=
EXTT7=
EXTT8=
EXTT9=
EXTT10=
EXTT11=
EXTT12=
EXTT13=
PLAYORDER=
